<svg xmlns="http://www.w3.org/2000/svg" width="1600" height="900" viewBox="0 0 1600 900">
  <defs>
    <linearGradient id="bg" x1="0" x2="1" y1="0" y2="1">
      <stop offset="0" stop-color="#050b07" />
      <stop offset="0.45" stop-color="#0b1c12" />
      <stop offset="1" stop-color="#10261a" />
    </linearGradient>
    <linearGradient id="mist" x1="0" x2="0" y1="0" y2="1">
      <stop offset="0" stop-color="#ffffff" stop-opacity="0.06" />
      <stop offset="1" stop-color="#ffffff" stop-opacity="0" />
    </linearGradient>
    <filter id="soft" x="-20%" y="-20%" width="140%" height="140%">
      <feGaussianBlur stdDeviation="18" />
    </filter>
  </defs>

  <rect width="1600" height="900" fill="url(#bg)" />

  <g opacity="0.95" filter="url(#soft)">
    <circle cx="260" cy="220" r="210" fill="#275438" opacity="0.5" />
    <circle cx="1380" cy="260" r="260" fill="#1d412c" opacity="0.35" />
    <circle cx="980" cy="760" r="340" fill="#c7b07b" opacity="0.12" />
  </g>

  <g opacity="0.22">
    <path d="M0 650c220-70 420-60 620 20s420 130 980 40v190H0z" fill="#000" />
    <path d="M0 700c220-60 420-40 620 40s420 110 980 20v180H0z" fill="#000" />
  </g>

  <rect y="520" width="1600" height="380" fill="url(#mist)" />

  <g opacity="0.9">
    <text x="120" y="320" fill="#e6f2eb" font-size="54" font-family="serif" letter-spacing="2">
      Yakra
    </text>
    <text x="120" y="365" fill="#bfe2ce" font-size="18" font-family="sans-serif" letter-spacing="6">
      PREMIUM ORGANICS • MICROGREENS • GLAMPING
    </text>
  </g>
</svg>
