<svg xmlns="http://www.w3.org/2000/svg" width="900" height="900" viewBox="0 0 900 900">
  <defs>
    <linearGradient id="g" x1="0" x2="1" y1="0" y2="1">
      <stop offset="0" stop-color="#0b1c12" />
      <stop offset="1" stop-color="#275438" />
    </linearGradient>
  </defs>

  <rect width="900" height="900" rx="56" fill="url(#g)" />
  <circle cx="680" cy="260" r="210" fill="#c7b07b" opacity="0.16" />

  <path
    d="M180 560c110-210 250-330 420-360-80 130-110 260-90 390 10 70-30 130-100 160-110 50-200-50-230-190z"
    fill="#050b07"
    opacity="0.32"
  />

  <path
    d="M270 590c90-140 190-230 320-270-50 100-60 200-30 300 20 70-20 120-90 150-90 40-160-40-200-180z"
    fill="#e6f2eb"
    opacity="0.22"
  />

  <text x="64" y="96" fill="#e6f2eb" font-family="serif" font-size="34" letter-spacing="1">
    Yakra Organics
  </text>
  <text x="64" y="136" fill="#bfe2ce" font-family="sans-serif" font-size="16" letter-spacing="4">
    DEHYDRATED POWDERS • MICROGREENS
  </text>
</svg>
